<?xml version="1.0" encoding="UTF-8"?>
<svg width="169px" height="35px" viewBox="0 0 169 35" version="1.1" xmlns="http://www.w3.org/2000/svg" xmlns:xlink="http://www.w3.org/1999/xlink">
    <!-- Generator: Sketch 52.2 (67145) - http://www.bohemiancoding.com/sketch -->
    <title>Group 2</title>
    <desc>Created with Sketch.</desc>
    <g id="Page-1" stroke="none" stroke-width="1" fill="none" fill-rule="evenodd">
        <g id="Artboard" transform="translate(-75.000000, -88.000000)">
            <g id="Group-2" transform="translate(75.000000, 88.000000)">
                <g id="Utube">
                    <path d="M32.66,3.4 C36.5591303,3.4 39.72,6.56086967 39.72,10.46 L39.72,24.35 C39.72,28.2491303 36.5591303,31.41 32.66,31.41 L10.78,31.41 C6.88086967,31.41 3.72,28.2491303 3.72,24.35 L3.72,10.46 C3.72,6.56086967 6.88086967,3.4 10.78,3.4 L32.67,3.4 L32.66,3.4 Z M32.67,0.4 L10.78,0.4 C5.22630031,0.405512361 0.725512361,4.90630031 0.72,10.46 L0.72,24.35 C0.731019727,29.899794 5.23019774,34.3944997 10.78,34.4 L32.67,34.4 C38.2236997,34.3944876 42.7244876,29.8936997 42.73,24.34 L42.73,10.45 C42.7189698,4.89630466 38.2137063,0.399989046 32.66,0.4 L32.67,0.4 Z" id="Shape" fill="#FF6161"></path>
                    <path d="M18.72,12.4 L26.72,17.4 L18.72,22.4 L18.72,12.4 L18.72,12.4 Z M18.72,9.4 C17.0631458,9.4 15.72,10.7431458 15.72,12.4 L15.72,22.4 C15.72145,23.4898613 16.3138489,24.4932091 17.2674405,25.0209047 C18.2210322,25.5486003 19.3858,25.517628 20.31,24.94 L28.31,19.94 C29.1880631,19.3919825 29.7216125,18.4300449 29.7216125,17.395 C29.7216125,16.3599551 29.1880631,15.3980175 28.31,14.85 L20.31,9.85 C19.8336232,9.55059794 19.28265,9.39119689 18.72,9.39 L18.72,9.4 Z" id="Shape" fill="#E56868"></path>
                </g>
                <path d="M60.34,8.32 L62.12,8.32 L67.22,22.1 L72.22,8.32 L74.04,8.32 L68.04,24 L66.48,24 L60.34,8.32 Z M75.52,13.3 L76.96,13.3 L76.96,24 L75.52,24 L75.52,13.3 Z M76.22,8.78 C76.5000014,8.78 76.7333324,8.8733324 76.92,9.06 C77.1066676,9.2466676 77.2,9.5133316 77.2,9.86 C77.2,10.2066684 77.1133342,10.4733324 76.94,10.66 C76.7666658,10.8466676 76.5266682,10.94 76.22,10.94 C75.9133318,10.94 75.6766675,10.8333344 75.51,10.62 C75.3433325,10.4066656 75.26,10.1600014 75.26,9.88 C75.26,9.4399978 75.359999,9.1466674 75.56,9 C75.760001,8.8533326 75.9799988,8.78 76.22,8.78 Z M86.78,8.32 L88.32,8.32 L88.32,24 L86.94,24 L86.8,22.26 C86.6133324,22.526668 86.4266676,22.7633323 86.24,22.97 C86.0533324,23.1766677 85.8666676,23.3533326 85.68,23.5 C85.01333,24.0066692 84.2400044,24.26 83.36,24.26 C81.9866598,24.26 80.8466712,23.726672 79.94,22.66 C79.0466622,21.593328 78.6,20.3000076 78.6,18.78 C78.6,17.2066588 79.0733286,15.8666722 80.02,14.76 C80.9800048,13.626661 82.1799928,13.06 83.62,13.06 C84.220003,13.06 84.7799974,13.1666656 85.3,13.38 C85.4866676,13.4600004 85.7033321,13.566666 85.95,13.7 C86.1966679,13.833334 86.4733318,13.9933324 86.78,14.18 L86.78,8.32 Z M86.78,18.82 L86.78,15.74 C86.1533302,15.1933306 85.606669,14.8266676 85.14,14.64 C84.673331,14.4533324 84.2200022,14.36 83.78,14.36 C82.6866612,14.36 81.8000034,14.8199954 81.12,15.74 C80.4799968,16.606671 80.16,17.6133276 80.16,18.76 C80.16,19.9866728 80.5133298,21.0066626 81.22,21.82 C81.8733366,22.5666704 82.6466622,22.94 83.54,22.94 C84.4200044,22.94 85.1799968,22.5533372 85.82,21.78 C86.4600032,21.0066628 86.78,20.020006 86.78,18.82 Z M100,18.22 L91.86,18.22 C91.86,19.753341 92.2166631,20.9233293 92.93,21.73 C93.6433369,22.5366707 94.5799942,22.94 95.74,22.94 C96.6200044,22.94 97.4666626,22.6600028 98.28,22.1 C98.5066678,21.9533326 98.7466654,21.7700011 99,21.55 C99.2533346,21.3299989 99.5266652,21.0733348 99.82,20.78 L99.82,22.52 C99.4999984,22.7600012 99.2033347,22.9699991 98.93,23.15 C98.6566653,23.3300009 98.4000012,23.4799994 98.16,23.6 C97.3199958,24.0400022 96.4800042,24.26 95.64,24.26 C94.1866594,24.26 92.9533384,23.760005 91.94,22.76 C90.8466612,21.7066614 90.3,20.3400084 90.3,18.66 C90.3,17.0733254 90.7933284,15.746672 91.78,14.68 C92.780005,13.5999946 94.013326,13.06 95.48,13.06 C96.9066738,13.06 98.0399958,13.5799948 98.88,14.62 C99.6266704,15.5666714 100,16.7666594 100,18.22 Z M92.06,17 L98.32,17 C98.1599992,16.0933288 97.8166693,15.4166689 97.29,14.97 C96.7633307,14.5233311 96.1266704,14.3 95.38,14.3 C94.5533292,14.3 93.8533362,14.5599974 93.28,15.08 C92.746664,15.5600024 92.3400014,16.199996 92.06,17 Z M107.08,24.26 C105.70666,24.26 104.500005,23.760005 103.46,22.76 C102.353328,21.7066614 101.8,20.3400084 101.8,18.66 C101.8,17.0733254 102.286662,15.746672 103.26,14.68 C104.260005,13.5999946 105.493326,13.06 106.96,13.06 C108.413341,13.06 109.639995,13.5999946 110.64,14.68 C111.626672,15.746672 112.12,17.0666588 112.12,18.64 C112.12,20.2933416 111.586672,21.6599946 110.52,22.74 C109.533328,23.7533384 108.386673,24.26 107.08,24.26 Z M106.94,22.94 C107.900005,22.94 108.75333,22.540004 109.5,21.74 C110.220004,20.9266626 110.58,19.8933396 110.58,18.64 C110.58,17.3466602 110.193337,16.2933374 109.42,15.48 C108.71333,14.7333296 107.893338,14.36 106.96,14.36 C105.999995,14.36 105.180003,14.7466628 104.5,15.52 C103.75333,16.3733376 103.38,17.4199938 103.38,18.66 C103.38,19.9133396 103.746663,20.9599958 104.48,21.8 C105.160003,22.5600038 105.979995,22.94 106.94,22.94 Z M114.22,8.3 L123.98,8.3 L123.98,9.68 L115.8,9.68 L115.8,15.1 L123.68,15.1 L123.68,16.48 L115.8,16.48 L115.8,22.62 L124.04,22.62 L124.04,24 L114.22,24 L114.22,8.3 Z M134.16,14.5 L134.56,13.3 L135.62,13.3 L135.62,22.98 C135.62,24.646675 135.213337,25.913329 134.4,26.78 C133.586663,27.646671 132.326675,28.08 130.62,28.08 C129.926663,28.08 129.270003,27.9566679 128.65,27.71 C128.029997,27.4633321 127.380003,27.0800026 126.7,26.56 L126.7,24.8 C127.126669,25.200002 127.546665,25.5366653 127.96,25.81 C128.373335,26.0833347 128.779998,26.2933326 129.18,26.44 C129.646669,26.6133342 130.126664,26.7 130.62,26.7 C131.673339,26.7 132.49333,26.4600024 133.08,25.98 C133.800004,25.3933304 134.16,24.4533398 134.16,23.16 L134.16,21.84 C133.653331,22.6800042 133.02667,23.2733316 132.28,23.62 C131.773331,23.8600012 131.213336,23.98 130.6,23.98 C129.279993,23.98 128.173338,23.4533386 127.28,22.4 C126.399996,21.3199946 125.96,20.0733404 125.96,18.66 C125.96,17.2466596 126.373329,16.0000054 127.2,14.92 C128.160005,13.6799938 129.386659,13.06 130.88,13.06 C131.62667,13.06 132.33333,13.2399982 133,13.6 C133.200001,13.7200006 133.396666,13.8533326 133.59,14 C133.783334,14.1466674 133.973332,14.3133324 134.16,14.5 Z M134.16,18.82 L134.16,15.88 C133.933332,15.6266654 133.703334,15.4133342 133.47,15.24 C133.236666,15.0666658 133.006668,14.913334 132.78,14.78 C132.513332,14.6333326 132.240001,14.526667 131.96,14.46 C131.679999,14.393333 131.393335,14.36 131.1,14.36 C130.099995,14.36 129.273337,14.7133298 128.62,15.42 C127.886663,16.220004 127.52,17.2733268 127.52,18.58 C127.52,19.7666726 127.826664,20.7466628 128.44,21.52 C129.040003,22.2800038 129.819995,22.66 130.78,22.66 C131.726671,22.66 132.526663,22.293337 133.18,21.56 C133.833337,20.8533298 134.16,19.9400056 134.16,18.82 Z M135.58,9.58 C134.99333,10.4333376 134.323337,11.059998 133.57,11.46 C132.816663,11.860002 131.913339,12.06 130.86,12.06 C129.873328,12.06 129.003337,11.8666686 128.25,11.48 C127.496663,11.0933314 126.833336,10.4866708 126.26,9.66 L126.96,9.26 C127.920005,10.59334 129.233325,11.26 130.9,11.26 C131.766671,11.26 132.506664,11.1100015 133.12,10.81 C133.733336,10.5099985 134.293331,10.0133368 134.8,9.32 L135.58,9.58 Z M137.94,13.3 L139.38,13.3 L139.38,24 L137.94,24 L137.94,13.3 Z M138.64,8.78 C138.920001,8.78 139.153332,8.8733324 139.34,9.06 C139.526668,9.2466676 139.62,9.5133316 139.62,9.86 C139.62,10.2066684 139.533334,10.4733324 139.36,10.66 C139.186666,10.8466676 138.946668,10.94 138.64,10.94 C138.333332,10.94 138.096668,10.8333344 137.93,10.62 C137.763332,10.4066656 137.68,10.1600014 137.68,9.88 C137.68,9.4399978 137.779999,9.1466674 137.98,9 C138.180001,8.8533326 138.399999,8.78 138.64,8.78 Z M142.98,10.14 L144.3,10.14 L144.3,13.28 L147.12,13.28 L147.12,14.58 L144.3,14.58 L144.3,21.38 C144.3,21.9400028 144.403332,22.3399988 144.61,22.58 C144.816668,22.8200012 145.173331,22.94 145.68,22.94 C145.973335,22.94 146.223332,22.906667 146.43,22.84 C146.636668,22.773333 146.866665,22.6866672 147.12,22.58 L147.12,23.88 C146.906666,23.946667 146.650002,24.0099997 146.35,24.07 C146.049999,24.1300003 145.746668,24.16 145.44,24.16 C144.639996,24.16 144.020002,23.9800018 143.58,23.62 C143.086664,23.2466648 142.84,22.6466708 142.84,21.82 L142.84,14.58 L141.04,14.58 L141.04,13.28 L142.84,13.28 L142.98,10.14 Z M148.96,13.3 L150.4,13.3 L150.4,24 L148.96,24 L148.96,13.3 Z M149.66,8.78 C149.940001,8.78 150.173332,8.8733324 150.36,9.06 C150.546668,9.2466676 150.64,9.5133316 150.64,9.86 C150.64,10.2066684 150.553334,10.4733324 150.38,10.66 C150.206666,10.8466676 149.966668,10.94 149.66,10.94 C149.353332,10.94 149.116668,10.8333344 148.95,10.62 C148.783333,10.4066656 148.7,10.1600014 148.7,9.88 C148.7,9.4399978 148.799999,9.1466674 149,9 C149.200001,8.8533326 149.419999,8.78 149.66,8.78 Z M168.68,17.14 L168.68,24 L167.22,24 L167.22,16.8 C167.22,16.0399962 166.960003,15.426669 166.44,14.96 C165.999998,14.559998 165.480003,14.36 164.88,14.36 C163.986662,14.36 163.18667,14.7733292 162.48,15.6 C161.786663,16.4133374 161.44,17.419994 161.44,18.62 L161.44,24 L159.98,24 L159.98,16.8 C159.98,16.0799964 159.733336,15.5000022 159.24,15.06 C158.773331,14.593331 158.240003,14.36 157.64,14.36 C156.773329,14.36 156.000003,14.7466628 155.32,15.52 C154.57333,16.3733376 154.2,17.4266604 154.2,18.68 L154.2,24 L152.74,24 L152.74,13.3 L154.1,13.3 L154.16,15 C154.546669,14.3733302 155.099996,13.8800018 155.82,13.52 C156.460003,13.2133318 157.106663,13.06 157.76,13.06 C158.773338,13.06 159.626663,13.3533304 160.32,13.94 C160.826669,14.3800022 161.146666,14.8199978 161.28,15.26 C161.546668,14.7666642 161.926664,14.320002 162.42,13.92 C163.193337,13.3466638 164.046662,13.06 164.98,13.06 C166.113339,13.06 166.99333,13.3999966 167.62,14.08 C168.32667,14.8533372 168.68,15.873327 168.68,17.14 Z" id="VideoEğitim" fill="#D7D7D7"></path>
            </g>
        </g>
    </g>
</svg>